inDegrees=no
num_controls=7
num_derivatives=13
num_iterations=105
num_multipliers=7
num_parameters=0
num_slacks=7
num_states=26
objective=0.469914
objective_accelerations=0.063306
objective_balance=0.002130
objective_effort=0.020177
objective_height=0.374751
objective_ligament=0.009550
solver_duration=1389.354600
status=Solve_Succeeded
success=true
DataType=double
version=3
OpenSimVersion=4.5
endheader
time	/jointset/ground_pelvis/pelvis_tilt/value	/jointset/ground_pelvis/pelvis_tx/value	/jointset/ground_pelvis/pelvis_ty/value	/jointset/hip_l/hip_flexion_l/value	/jointset/hip_l/hip_adduction_l/value	/jointset/hip_l/hip_rotation_l/value	/jointset/back/lumbar_extension/value	/jointset/patellofemoral_l/patellar_flexion_l/value	/jointset/knee_l/knee_flexion_l/value	/jointset/knee_l/knee_adduction_l/value	/jointset/knee_l/knee_rotation_l/value	/jointset/ankle_l/ankle_angle_l/value	/jointset/subtalar_l/subtalar_angle_l/value	/jointset/ground_pelvis/pelvis_tilt/speed	/jointset/ground_pelvis/pelvis_tx/speed	/jointset/ground_pelvis/pelvis_ty/speed	/jointset/hip_l/hip_flexion_l/speed	/jointset/hip_l/hip_adduction_l/speed	/jointset/hip_l/hip_rotation_l/speed	/jointset/back/lumbar_extension/speed	/jointset/patellofemoral_l/patellar_flexion_l/speed	/jointset/knee_l/knee_flexion_l/speed	/jointset/knee_l/knee_adduction_l/speed	/jointset/knee_l/knee_rotation_l/speed	/jointset/ankle_l/ankle_angle_l/speed	/jointset/subtalar_l/subtalar_angle_l/speed	/forceset/tau_hip_flexion_l	/forceset/tau_hip_adduction_l	/forceset/tau_hip_rotation_l	/forceset/tau_knee_flexion_l	/forceset/tau_ankle_angle_l	/forceset/tau_subtalar_angle_l	/forceset/tau_lumbar_extension	lambda_cid13_p0	lambda_cid13_p1	lambda_cid13_p2	lambda_cid13_p3	lambda_cid13_p4	lambda_cid13_p5	lambda_cid14_p0	/jointset/ground_pelvis/pelvis_tilt/accel	/jointset/ground_pelvis/pelvis_tx/accel	/jointset/ground_pelvis/pelvis_ty/accel	/jointset/hip_l/hip_flexion_l/accel	/jointset/hip_l/hip_adduction_l/accel	/jointset/hip_l/hip_rotation_l/accel	/jointset/back/lumbar_extension/accel	/jointset/patellofemoral_l/patellar_flexion_l/accel	/jointset/knee_l/knee_flexion_l/accel	/jointset/knee_l/knee_adduction_l/accel	/jointset/knee_l/knee_rotation_l/accel	/jointset/ankle_l/ankle_angle_l/accel	/jointset/subtalar_l/subtalar_angle_l/accel	gamma_cid13_p0	gamma_cid13_p1	gamma_cid13_p2	gamma_cid13_p3	gamma_cid13_p4	gamma_cid13_p5	gamma_cid14_p0
1.5	-0.5497629207254485	-0.0403441325778995	0.7909783562337774	1.198946488606824	-0.34853296353749	-0.115253673733292	-0.3402342951223153	0.5713519777628084	0.5713519777627604	-0.06051239174295592	-0.1744819369122774	0.01756827826214028	0.07876443611115415	1.054316005233201	0.4992719031424619	0.4726426744943255	-2.804577956026639	-0.006903216062971746	-0.5205242188739752	0.5970517415417849	-1.553020233175169	-1.553020233175165	-0.2210893998580776	0.002377228694419726	0.0850412554970334	0.02432439453538593	-0.1991197270013361	0.02057278560729789	0.007647825305011753	-0.06889637637950512	0.03804651184041009	0.00406669502426918	0.1630139639468882	-11.92288963185868	-2.065343266777491	2.774549329405766	-7.09558422936282	-429.2461194956863	-56.31368987907913	-20.02906029927756	0.7625508369446385	0.833029653118285	-0.6304046672029096	-1.634346428436313	0.2369367990794513	-0.2793491576242115	1.750887849413756	-0.5658077215454217	-0.5658077215454091	-0.3505073852549537	0.1553176248831757	0.2459913278842508	0.3209954366737325	6.199707229386063e-09	1.39592476719377e-06	2.088281665463228e-09	2.803877730738774e-07	2.654691227937716e-07	-1.407042531574762e-07	2.386969783808525e-07
1.51	-0.5391822015667012	-0.03531034393263351	0.7956723396254384	1.170821166425266	-0.3485914493714041	-0.1204733623649905	-0.3341781546638459	0.555795188463997	0.55579518846398	-0.06274283529154109	-0.1744521314141478	0.01843064714466728	0.07902230406245501	1.06165989950364	0.5074129965847698	0.4660537807015624	-2.820098596621958	-0.004770317124055136	-0.5233717817045656	0.6140980048767011	-1.558135994321596	-1.558135994321618	-0.2249379345900322	0.003602413597996516	0.08743430083292453	0.02727448773319867	-0.1925775324344407	0.02012597872051821	0.00799694277046129	-0.06700278982608317	0.03458885176785986	0.003090459472657721	0.1581426013717507	-12.89836294675497	-1.675593768857022	2.946603494852266	-6.284926108369459	-425.5728909202356	-55.93203415460499	-20.54861219509717	0.6951560589157637	0.7937650891239429	-0.6880733832917858	-1.452695957428519	0.2049034413140588	-0.2809466831604314	1.669743784212822	-0.4542781915516523	-0.454278191555619	-0.392644561454373	0.1086976254458396	0.2362606901542456	0.2857282356519282	6.966339707491013e-08	1.215177822047343e-06	-5.302533116776806e-07	2.283159264318988e-07	3.932736293485879e-07	-1.326082177150453e-07	2.881335005999985e-07
1.52	-0.528533073997886	-0.03019732117307707	0.8002974457495757	1.142552283221284	-0.3486279188159263	-0.1257202239924729	-0.3279539019302909	0.5401932779776532	0.54019327797766	-0.0650098877963052	-0.1744095583265005	0.01931700639129564	0.07931041534059736	1.067997687246974	0.5151187260005508	0.4588672209896378	-2.833290160511234	-0.002499938184484856	-0.5259588180305163	0.6306741965589091	-1.562044470682435	-1.562044470682483	-0.2284111910935339	0.004930746595608453	0.08983932831732426	0.03037305990368659	-0.1860353378675474	0.01967917183373108	0.00834606023589125	-0.06510920327266423	0.03113119169530615	0.002114223921037643	0.1532712387966151	-13.87804239799008	-1.285807798582798	3.119451986748426	-5.46444082402772	-421.9636755422763	-55.61175048088986	-21.04677001659201	0.5613295315236516	0.7459568478129621	-0.7499378510352274	-1.168531087227938	0.264432799210173	-0.2272438566963379	1.656873518872104	-0.3243507644276045	-0.3243507644275929	-0.2754517395643614	0.175947243690153	0.2483877575859861	0.3506912312087605	1.011242547039202e-07	1.181648832798015e-06	-7.968499865046354e-07	2.082452596364508e-07	4.713503110724045e-07	-1.137353629316249e-07	3.198553618292038e-07
1.53	-0.5178255822919328	-0.02500942476851158	0.8048477911621704	1.114162938941653	-0.3486412769512248	-0.1309915579904298	-0.3215664632125264	0.5245582305942791	0.5245582305943565	-0.06731038724274606	-0.1743532714899298	0.0202274421699447	0.07962995519594221	1.073326735533771	0.5223860673135535	0.4511092217642951	-2.84418958136673	-0.0001704669142058659	-0.5282130498438699	0.6467207740522485	-1.564760839430497	-1.564760839430494	-0.2316831798466028	0.006375347171988569	0.09225156615282229	0.03353719994196053	-0.1793897871063324	0.0189544604315618	0.008670989340105384	-0.06360706363414395	0.02833174769821411	0.0009487439602424797	0.1483188481847142	-14.66479536111334	-0.8300996777419783	3.261785560359705	-4.807642393452757	-418.5243919705551	-55.23306147151884	-21.52077983386887	0.4926399537640349	0.7059955599514961	-0.8025249022426006	-0.9922365809845514	0.2172333286149858	-0.2100024974831091	1.564633923291838	-0.2147228779039095	-0.2147228778961159	-0.352025257909063	0.1358198204148792	0.238242205048552	0.2994940682637861	9.858210310288457e-08	1.304538921689355e-06	-7.810926854081425e-07	2.221758464279409e-07	4.965911789132846e-07	-8.341213759840341e-08	3.327553957565975e-07
1.54	-0.5070700106078118	-0.01975108039343456	0.80931779779372	1.085676282654212	-0.3486313345662857	-0.1362825322372866	-0.3150213419080831	0.5089021309338372	0.5089021309339959	-0.06964339713964196	-0.1742811179764409	0.02116212040865202	0.07998118018729516	1.077613682880822	0.5292083201028556	0.4427994647805907	-2.852752562073193	0.002160165863204358	-0.5298868678103543	0.6622107138946689	-1.566254926094892	-1.566254926094837	-0.2349132811889092	0.008104081980486543	0.0946878203289945	0.03671008710531753	-0.172744236345123	0.01822974902938556	0.008995918444400262	-0.0621049239956296	0.02553230370111877	-0.000216736000561748	0.1433664575728104	-15.45549867570996	-0.3738869861123981	3.404253200328028	-4.139938632982267	-415.1423054166997	-54.91557762618155	-21.96969584928824	0.3529093435741678	0.6569391430728273	-0.8602894027075638	-0.7012430574215502	0.264665100636407	-0.1111610873225105	1.545545988688294	-0.07989434769404817	-0.07989434769404785	-0.2670742574118633	0.232774090113695	0.2531910257208425	0.3524406562253686	9.670405000935149e-08	1.391720282592531e-06	-7.709189512744661e-07	2.278990425506331e-07	5.260169294737974e-07	-4.917525353140754e-08	3.399796865622683e-07
1.55	-0.4962767564919027	-0.01442687085623834	0.8137020332933632	1.057115687371114	-0.3485980228603548	-0.1415878079940643	-0.308324304553978	0.4932371074585157	0.4932371074585287	-0.07200818499144035	-0.1741905698304468	0.02212114578904765	0.08036420150894057	1.080861632699073	0.5355455048632963	0.4339617322883053	-2.858957161150018	0.004506000437969204	-0.5311007833451302	0.677087958445498	-1.566534922188858	-1.566534922188813	-0.238010208889729	0.01002740240393787	0.09711535877903353	0.03989797695460559	-0.1662722845551204	0.01734979584036998	0.00930000254711231	-0.06042627197908421	0.02239900965580872	-0.001381934779195169	0.1384869147057571	-16.36699837915268	0.09424940004295454	3.555218915573645	-3.331566955700684	-411.9480825971554	-54.59942466030204	-22.39411280447449	0.2844431267482038	0.6089401899875427	-0.9082847432908425	-0.5186269442203096	0.2199444535207356	-0.1161109221355126	1.442493916144567	0.03010656810175131	0.03010656810020144	-0.3256578760040942	0.1751833156453802	0.237292203754601	0.3023929682453165	9.559115389185396e-08	1.437758978639781e-06	-7.671784573370782e-07	2.241658972505804e-07	5.602643927330171e-07	-1.042915396680238e-08	3.406645342059543e-07
